<?xml version="1.0" ?><!DOCTYPE svg  PUBLIC '-//W3C//DTD SVG 1.1//EN'  'http://www.w3.org/Graphics/SVG/1.1/DTD/svg11.dtd'><svg enable-background="new 0 0 64 64" height="64px" version="1.1" viewBox="0 0 64 64" width="64px" xml:space="preserve" xmlns="http://www.w3.org/2000/svg" xmlns:xlink="http://www.w3.org/1999/xlink"><g id="_x35_0_China"/><g id="_x34_9_fever"/><g id="_x34_8_Thermo_Head"/><g id="_x34_7_Call_Hospital"/><g id="_x34_6_Hospital_Bed"/><g id="_x34_5_Eye"/><g id="_x34_4_Ambulance"/><g id="_x34_3_disinfectant"/><g id="_x34_2_Antibody"/><g id="_x34_1_Death"/><g id="_x34_0_Isolation_Room"/><g id="_x33_9_Soap"/><g id="_x33_8_Corona_Virus"/><g id="_x33_7_Medic"/><g id="_x33_6_Vitamin"/><g id="_x33_5_Diare"/><g id="_x33_4_Hand_sanitizer"/><g id="_x33_3_Soap"><g><path d="M60,22.35V20c0-3.309-2.691-6-6-6h-4v-2h6c1.104,0,2-0.896,2-2V6c0-3.309-2.691-6-6-6h-8c-2.606,0-4.824,1.674-5.65,4H32    c-0.53,0-1.039,0.211-1.414,0.586l-4,4c-0.781,0.781-0.781,2.047,0,2.828C26.976,11.805,27.488,12,28,12s1.024-0.195,1.414-0.586    L32.829,8H38v2c0,1.104,0.896,2,2,2h6v2h-4c-3.309,0-6,2.691-6,6v2.35c-2.327,0.827-4,3.044-4,5.65v6.35    C31.374,34.127,30.702,34,30,34H14c-1.602,0-3.108,0.624-4.243,1.758l-8,8C0.624,44.891,0,46.397,0,48s0.624,3.109,1.757,4.242    l4,4C6.891,57.376,8.397,58,10,58s3.109-0.624,4.243-1.758L16.485,54H32v4c0,3.309,2.691,6,6,6h20c3.309,0,6-2.691,6-6V28    C64,25.394,62.327,23.177,60,22.35z M42,6c0-1.103,0.897-2,2-2h8c1.103,0,2,0.897,2,2v2H42V6z M42,18h12c1.103,0,2,0.897,2,2v2H40    v-2C40,18.897,40.897,18,42,18z M15.657,50c-0.53,0-1.039,0.211-1.414,0.586l-2.828,2.828c-0.756,0.756-2.074,0.756-2.829,0l-4-4    C4.208,49.036,4,48.534,4,48s0.208-1.036,0.585-1.414l8-7.999C12.964,38.208,13.466,38,14,38h16c1.103,0,2,0.897,2,2s-0.897,2-2,2    h-6c-1.104,0-2,0.896-2,2s0.896,2,2,2h10.343c0.53,0,1.039-0.211,1.414-0.586l6.828-6.828c0.756-0.756,2.073-0.756,2.829,0    C45.792,38.964,46,39.466,46,40s-0.208,1.036-0.585,1.414l-8,7.999C37.036,49.792,36.534,50,36,50H15.657z M60,58    c0,1.103-0.897,2-2,2H38c-1.103,0-2-0.897-2-2v-4c1.602,0,3.108-0.624,4.243-1.758l8-8C49.376,43.109,50,41.603,50,40    s-0.624-3.109-1.757-4.242C47.109,34.624,45.603,34,44,34s-3.109,0.624-4.243,1.758L36,39.516V28c0-1.103,0.897-2,2-2h20    c1.103,0,2,0.897,2,2V58z"/><path d="M24,30c3.309,0,6-2.691,6-6c0-2.848-3.54-6.424-4.624-7.451c-0.771-0.732-1.98-0.732-2.752,0    C21.54,17.576,18,21.152,18,24C18,27.309,20.691,30,24,30z M24.001,20.897C25.115,22.183,25.975,23.478,26,24c0,1.103-0.897,2-2,2    s-2-0.897-2-1.996C22.025,23.481,22.886,22.186,24.001,20.897z"/></g></g><g id="_x33_2_Wash_Hand"/><g id="_x33_1_Wash_with_Soap"/><g id="_x33_0_Stethoscope"/><g id="_x32_9_Lockdown"/><g id="_x32_8_Bat"/><g id="_x32_7_Pills"/><g id="_x32_6_Airborne"/><g id="_x32_5_Lockdown"/><g id="_x32_4_Siocial_Distance"/><g id="_x32_3_Thermometer"/><g id="_x32_2_Hand_Soap"/><g id="_x32_1_Alcohol"/><g id="_x32_0_Vaccine"/><g id="_x31_9_Clinic"/><g id="_x31_8_Check_Up"/><g id="_x31_7_Pneumonia"/><g id="_x31_6_Masker"/><g id="_x31_5_Use_Masker"/><g id="_x31_4_No_Travel"/><g id="_x31_3_No_crowd"/><g id="_x31_2_Work_from_Home"/><g id="_x31_1_Quarantine"/><g id="_x31_0_Face_Contact"/><g id="_x30_9_Headache"/><g id="_x30_8_Puke"/><g id="_x30_7_Sore_Throath"/><g id="_x30_6_Breathe"/><g id="_x30_5_Cough"/><g id="_x30_4_Blood"/><g id="_x30_3_Microscope"/><g id="_x30_2_Pandemic"/><g id="_x30_1_Corona_Virus"/></svg>