<?xml version="1.0" ?><svg id="Layer_1" style="enable-background:new 0 0 24 24;" version="1.1" viewBox="0 0 24 24" xml:space="preserve" xmlns="http://www.w3.org/2000/svg" xmlns:xlink="http://www.w3.org/1999/xlink"><g id="XMLID_1659_"><g id="XMLID_1646_"><path d="M22.487,8.505C22.368,4.594,20.854,1.5,18.999,1.5h-14    c-1.933,0-3.5,3.358-3.5,7.5s1.567,7.5,3.5,7.5h0.5v6l1.422-1l1.422,1l1.419-1l1.416,1l1.418-1l1.416,1l1.415-1l1.417,1l1.412-1    l1.412,1l1.416-1l1.415,1v-14L22.487,8.505z" id="XMLID_1692_" style="fill:#E4E5E6;"/><path d="M5.499,19h13.5c1.933,0,3.5-3.358,3.5-7.5    c0-0.427-0.021-0.843-0.052-1.25c-0.278,3.546-1.714,6.25-3.448,6.25h-13.5C5.499,16.5,5.499,19,5.499,19z" id="XMLID_1689_" style="opacity:0.1;enable-background:new    ;"/><g id="XMLID_1656_" style="opacity:0.5;"><path d="M18.315,16.354c0.029,0.051,0.06,0.097,0.091,0.146h0.593     C18.765,16.5,18.536,16.449,18.315,16.354z" id="XMLID_1660_" style="fill:#FFFFFF;"/><path d="M2.999,10.5c0-4.142,1.567-7.5,3.5-7.5h10.406c0.584-0.938,1.307-1.5,2.094-1.5     h-14c-1.933,0-3.5,3.358-3.5,7.5c0,3.64,1.21,6.672,2.816,7.354C3.513,14.98,2.999,12.87,2.999,10.5z" id="XMLID_1661_" style="fill:#FFFFFF;"/></g><path d="M4.999,16.5h14c-0.786,0-1.509-0.562-2.094-1.5h-14    C3.49,15.938,4.213,16.5,4.999,16.5z" id="XMLID_1671_" style="opacity:0.1;enable-background:new    ;"/><ellipse cx="18.999" cy="9" id="XMLID_1655_" rx="3.5" ry="7.5" style="opacity:0.2;enable-background:new    ;"/><g id="XMLID_1344_"><path d="M17.999,9c0,1.991,0.337,3,1,3s1-1.009,1-3s-0.337-3-1-3S17.999,7.009,17.999,9z     " id="XMLID_1378_" style="fill:#303C42;"/><path d="M22.985,8.431C22.843,4.222,21.146,1,18.999,1h-14c-2.243,0-4,3.514-4,8     s1.757,8,4,8v5.5c0,0.187,0.104,0.358,0.27,0.444c0.165,0.085,0.365,0.072,0.519-0.035l1.134-0.798l1.133,0.797     c0.174,0.122,0.402,0.122,0.576,0l1.132-0.797l1.128,0.796c0.172,0.122,0.404,0.123,0.576,0l1.13-0.797l1.128,0.796     c0.172,0.122,0.404,0.122,0.576,0l1.127-0.796l1.129,0.796c0.172,0.122,0.403,0.121,0.577,0l1.123-0.795l1.123,0.795     c0.173,0.121,0.404,0.122,0.577,0l1.128-0.796l1.127,0.796c0.086,0.061,0.187,0.092,0.288,0.092c0.079,0,0.157-0.019,0.229-0.056     C22.895,22.856,23,22.685,23,22.498v-14C22.999,8.476,22.989,8.455,22.985,8.431z M21.999,9c0,4.125-1.581,7-3,7s-3-2.875-3-7     s1.581-7,3-7S21.999,4.875,21.999,9z M1.999,9c0-4.125,1.581-7,3-7h12.038c-1.225,1.352-2.038,3.95-2.038,7s0.813,5.648,2.038,7     H4.999C3.58,16,1.999,13.125,1.999,9z M21.999,21.534l-0.627-0.442c-0.172-0.122-0.404-0.122-0.576,0l-1.128,0.796l-1.123-0.796     c-0.174-0.122-0.404-0.122-0.578,0l-1.124,0.796l-1.128-0.796c-0.172-0.122-0.404-0.122-0.576,0l-1.127,0.796l-1.128-0.796     c-0.172-0.122-0.404-0.123-0.576,0l-1.13,0.797l-1.128-0.796c-0.172-0.122-0.402-0.123-0.576,0L8.342,21.89l-1.133-0.797     c-0.174-0.122-0.402-0.122-0.576,0l-0.634,0.444V17h13c1.208,0,2.272-1.026,3-2.668V21.534z" id="XMLID_1386_" style="fill:#303C42;"/></g></g><linearGradient gradientUnits="userSpaceOnUse" id="XMLID_2_" x1="0.6652" x2="25.1761" y1="6.5119" y2="17.9415"><stop offset="0" style="stop-color:#FFFFFF;stop-opacity:0.2"/><stop offset="1" style="stop-color:#FFFFFF;stop-opacity:0"/></linearGradient><path d="M22.985,8.431C22.843,4.222,21.146,1,18.999,1h-14c-2.243,0-4,3.514-4,8   s1.757,8,4,8v5.5c0,0.187,0.104,0.358,0.27,0.444c0.165,0.085,0.365,0.072,0.519-0.035l1.134-0.798l1.133,0.797   c0.174,0.122,0.402,0.122,0.576,0l1.132-0.797l1.128,0.796c0.172,0.122,0.404,0.123,0.576,0l1.13-0.797l1.128,0.796   c0.172,0.122,0.404,0.122,0.576,0l1.127-0.796l1.129,0.796c0.172,0.122,0.403,0.121,0.577,0l1.123-0.795l1.123,0.795   c0.173,0.121,0.404,0.122,0.577,0l1.128-0.796l1.127,0.796c0.086,0.061,0.187,0.092,0.288,0.092c0.079,0,0.157-0.019,0.229-0.056   C22.895,22.856,23,22.685,23,22.498v-14C22.999,8.476,22.989,8.455,22.985,8.431z" id="XMLID_1717_" style="fill:url(#XMLID_2_);"/></g></svg>